{"title":"Once.Upon.A.Time.S03.Wicked.Is.Coming.720p.WEB-DL.DD5.1.h264-jAh","uid":9783575,"size":1430801579,"categoryP":"video","categoryS":"hd___tv_shows","magnet":"?xt=urn:btih:2901c5962ed567164cc21e098159037fa4b1293a&amp;dn=Once.Upon.A.Time.S03.Wicked.Is.Coming.720p.WEB-DL.DD5.1.h264-jAh&amp;tr=udp%3A%2F%2Ftracker.openbittorrent.com%3A80&amp;tr=udp%3A%2F%2Fopen.demonii.com%3A1337&amp;tr=udp%3A%2F%2Ftracker.coppersurfer.tk%3A6969&amp;tr=udp%3A%2F%2Fexodus.desync.com%3A6969","seeders":7,"leechers":5,"uploader":".SceNe.","files":1,"time":1395134203,"description":"General\nUnique ID : 222190085104118217892792838371131122915 (0xA72840FAA971DB7ABBE0AF5AEFA1E4E3)\nComplete name : Once.Upon.A.Time.S03.Wicked.Is.Coming.720p.WEB-DL.DD5.1.h264-jAh.mkv\nFormat : Matroska\nFormat version : Version 2\nFile size : 1.33 GiB\nDuration : 42mn 4s\nOverall bit rate : 4 534 Kbps\nEncoded date : UTC 2014-03-17 15:38:13\nWriting application : mkvmerge v6.1.0 ('Old Devil') built on Mar 2 2013 14:32:37\nWriting library : libebml v1.3.0 + libmatroska v1.4.0\n\nVideo\nID : 1\nFormat : AVC\nFormat/Info : Advanced Video Codec\nFormat profile : &lt;a class=&quot;__cf_email__&quot; href=&quot;/cdn-cgi/l/email-protection&quot; data-cfemail=&quot;074f6e606f474b342936&quot;&gt;[email&amp;#160;protected]&lt;/a&gt;&lt;script cf-hash='f9e31' type=&quot;text/javascript&quot;&gt;\n/* &lt;![CDATA[ */!function(){try{var t=&quot;currentScript&quot;in document?document.currentScript:function(){for(var t=document.getElementsByTagName(&quot;script&quot;),e=t.length;e--;)if(t[e].getAttribute(&quot;cf-hash&quot;))return t[e]}();if(t&amp;&amp;t.previousSibling){var e,r,n,i,c=t.previousSibling,a=c.getAttribute(&quot;data-cfemail&quot;);if(a){for(e=&quot;&quot;,r=parseInt(a.substr(0,2),16),n=2;a.length-n;n+=2)i=parseInt(a.substr(n,2),16)^r,e+=String.fromCharCode(i);e=document.createTextNode(e),c.parentNode.replaceChild(e,c)}}}catch(u){}}();/* ]]&gt; */&lt;/script&gt;\nFormat settings, CABAC : No\nFormat settings, ReFrames : 2 frames\nFormat settings, GOP : N=1\nCodec ID : V_MPEG4/ISO/AVC\nDuration : 42mn 4s\nBit rate : 4 059 Kbps\nWidth : 1 280 pixels\nHeight : 720 pixels\nDisplay aspect ratio : 16:9\nFrame rate : 23.976 fps\nColor space : YUV\nChroma subsampling : 4:2:0\nBit depth : 8 bits\nScan type : Progressive\nBits/(Pixel*Frame) : 0.184\nStream size : 1.19 GiB (90%)\nLanguage : English\nDefault : Yes\nForced : No\nColor primaries : BT.709-5, BT.1361, IEC 61966-2-4, SMPTE RP177\nTransfer characteristics : BT.709-5, BT.1361\nMatrix coefficients : BT.709-5, BT.1361, IEC 61966-2-4 709, SMPTE RP177\n\nAudio\nID : 2\nFormat : AC-3\nFormat/Info : Audio Coding 3\nMode extension : CM (complete main)\nFormat settings, Endianness : Big\nCodec ID : A_AC3\nDuration : 42mn 4s\nBit rate mode : Constant\nBit rate : 384 Kbps\nChannel(s) : 6 channels\nChannel positions : Front: L C R, Side: L R, LFE\nSampling rate : 48.0 KHz\nBit depth : 16 bits\nCompression mode : Lossy\nStream size : 116 MiB (8%)\nLanguage : English\nDefault : Yes\nForced : No\n\nText\nID : 3\nFormat : UTF-8\nCodec ID : S_TEXT/UTF8\nCodec ID/Info : UTF-8 Plain Text\nLanguage : English\nDefault : Yes\nForced : No","torrent":{"xt":"urn:btih:2901c5962ed567164cc21e098159037fa4b1293a","amp;dn":"Once.Upon.A.Time.S03.Wicked.Is.Coming.720p.WEB-DL.DD5.1.h264-jAh","amp;tr":["udp%3A%2F%2Ftracker.openbittorrent.com%3A80","udp%3A%2F%2Fopen.demonii.com%3A1337","udp%3A%2F%2Ftracker.coppersurfer.tk%3A6969","udp%3A%2F%2Fexodus.desync.com%3A6969"],"infoHash":"2901c5962ed567164cc21e098159037fa4b1293a","infoHashBuffer":{"type":"Buffer","data":[41,1,197,150,46,213,103,22,76,194,30,9,129,89,3,127,164,177,41,58]},"announce":[],"urlList":[]}}